<svg width="26" height="26" viewBox="0 0 26 26" fill="none" xmlns="http://www.w3.org/2000/svg">
<path d="M18.5274 14.3514V14.5826L18.6288 14.7903L20.1962 17.9994H15.5174H14.5174V18.9994V19.0782C14.5174 19.9555 13.8062 20.6667 12.9289 20.6667C12.0516 20.6667 11.3404 19.9555 11.3404 19.0782V18.9994V17.9994H10.3404H5.66566L7.23304 14.7903L7.33448 14.5826V14.3514V11.0259H7.33454L7.33442 11.0149C7.30933 8.73678 8.70112 6.68242 10.8262 5.86096L10.8339 5.85797L10.84 5.8555C10.8397 5.8556 10.8398 5.85558 10.8401 5.85545L10.8402 5.85541L10.8405 5.85527L10.8413 5.85498L10.8453 5.85337L10.8751 5.84192C10.9031 5.83128 10.947 5.81501 11.0045 5.79496C11.1197 5.75472 11.287 5.70008 11.4877 5.64532C11.8992 5.533 12.4052 5.43298 12.874 5.43298C13.3465 5.43298 13.8842 5.53422 14.3318 5.64917C14.5495 5.70507 14.7335 5.76096 14.8617 5.80238C14.9256 5.82303 14.975 5.83989 15.0072 5.85111L15.0397 5.86265C17.1458 6.70919 18.5268 8.75107 18.5274 11.0219C18.5274 11.022 18.5274 11.0221 18.5274 11.0221V14.3514Z" stroke="#46B843" stroke-width="2"/>
<path d="M6.65475 18.7494H19.0357" stroke="#46B843" stroke-width="2" stroke-linecap="square"/>
</svg>
